<?xml version="1.0" standalone="no"?><!DOCTYPE svg PUBLIC "-//W3C//DTD SVG 1.1//EN" "http://www.w3.org/Graphics/SVG/1.1/DTD/svg11.dtd"><svg t="1687056191850" class="icon" viewBox="0 0 1024 1024" version="1.1" xmlns="http://www.w3.org/2000/svg" p-id="2113" xmlns:xlink="http://www.w3.org/1999/xlink" width="32" height="32"><path d="M259.8 890.9a261.3 73.9 0 1 0 522.6 0 261.3 73.9 0 1 0-522.6 0z" fill="#F0F0F0" opacity=".4" p-id="2114"></path><path d="M721.8 890.2H273.6c-11.4 0-20.9-7.8-22.1-18L187 308.8c0-66.4 59.6-120.3 133.2-120.3h355.1c73.5 0 133.2 53.9 133.2 120.3L744 872.2c-1.3 10.2-10.8 18-22.2 18z" fill="#E45C37" p-id="2115"></path><path d="M795.7 142.5l-46.7-5.3c-5.3-0.6-10.2 2.8-10.9 7.7l-40.4 292.3V68c0-5.5-5-10-11.1-10h-44.4c-6.1 0-11.1 4.5-11.1 10v142.5l-43.4-2.9c-6.1-0.4-11.4 3.7-11.9 9.3l-33.5 412.6V108.1c0-5.5-5-10-11.1-10h-44.4c-6.1 0-11.1 4.5-11.1 10v314.2l-31.4-275.7c-0.6-5.5-6.1-9.5-12.2-8.9l-44.2 4.1c-0.4 0.1-0.7 0.2-1.1 0.3v-54c0-5.5-5-10-11.1-10h-44.3c-6.1 0-11.1 4.5-11.1 10v256.3l-20.1-177.8c-0.6-5.5-6.1-9.5-12.2-9l-44.2 4.1c-6.1 0.6-10.5 5.5-9.9 11l63.2 558.5 66.2-6.1-8.6-75.6h32V230.3l54.7 480.9 66.2-6.2-4-35.5h35.2l-8.7 107.3 66.4 4.4 34.3-422.6v270.8h66.6V576l47.2 5.3 59.3-428.9c0.9-4.9-2.9-9.3-8.2-9.9z" opacity=".03" p-id="2116"></path><path d="M352.4 725.1l-66.2 6.1L223 172.8c-0.6-5.5 3.8-10.4 9.9-11l44.2-4.1c6.1-0.6 11.5 3.4 12.2 9l63.1 558.4z" fill="#FFDB00" p-id="2117"></path><path d="M352.4 725.1l-22.1 2-63.7-562.6c-0.4-3.2 2.2-6 5.7-6.3l9.3-0.9c3.5-0.3 6.7 2 7 5.2l63.8 562.6z" fill="#FDE200" p-id="2118"></path><path d="M293.9 730.5l-4.4 0.4c-1.7 0.2-3.3-0.9-3.6-2.7l-63.3-558.9c-0.4-3.6 2.5-6.9 6.5-7.3l3.7-0.3 64 565.4c0.2 1.8-1.1 3.3-2.9 3.4 0.1 0 0 0 0 0z" fill="#FFEA6C" p-id="2119"></path><path d="M733.8 581.3l-66.1-7.4 59.3-429c0.7-4.8 5.5-8.3 10.9-7.7l46.7 5.3c5.3 0.6 9.1 5 8.5 9.8l-59.3 429z" fill="#FFDB00" p-id="2120"></path><path d="M733.8 581.3l-22-2.5 59.8-432.6c0.6-2.9 3.3-4.9 6.3-4.4l10.9 1.2c2.9 0.2 5.1 2.6 4.9 5.5v0.2l-59.9 432.6z" fill="#F9D000" p-id="2121"></path><path d="M675.8 574.8l-5.2-0.6c-1.5-0.1-2.6-1.4-2.5-2.9v-0.1l59.3-429.3c0.4-3.2 3.7-5.4 7.2-5.1l4.6 0.5-60.1 435.1c-0.3 1.6-1.8 2.6-3.3 2.4z" fill="#FFED78" p-id="2122"></path><path d="M319.9 78h45.5c5.8 0 10.5 4.7 10.5 10.5v560.9h-66.6V88.6c0-5.8 4.7-10.5 10.6-10.6-0.1 0-0.1 0 0 0z" fill="#FFDB00" p-id="2123"></path><path d="M359.8 78h10c3.4 0 6.1 2.7 6.1 6.1v565.3h-22.2V84.1c0-3.3 2.7-6.1 6.1-6.1z" fill="#FDE71F" p-id="2124"></path><path d="M316.3 78h4.1v568.2c0 1.7-1.4 3.1-3.1 3.1h-4.8c-1.7 0-3.1-1.4-3.1-3.1V85c-0.1-3.8 3-6.9 6.9-7z" fill="#FFEB6E" p-id="2125"></path><path d="M496.8 705l-66.2 6.2-63.5-558.5c-0.6-5.5 3.8-10.4 9.9-11l44.2-4.1c6.1-0.6 11.5 3.4 12.2 8.9L496.8 705z" fill="#FFDB00" p-id="2126"></path><path d="M496.8 705l-22.1 2-64-562.7c-0.4-3.2 2.2-6 5.7-6.3l9.3-0.9c3.5-0.3 6.7 2 7 5.2L496.8 705z" fill="#FBD800" p-id="2127"></path><path d="M438.3 710.5l-4.4 0.4c-1.7 0.2-3.3-0.9-3.6-2.7l-63.5-558.8c-0.4-3.6 2.5-6.9 6.5-7.3l3.7-0.3 64.3 565.4c0.1 1.7-1.2 3.1-3 3.3 0.1 0 0 0 0 0z" fill="#FFEE8A" p-id="2128"></path><path d="M475.2 98.1h45.5c5.8 0 10.5 4.7 10.5 10.5v560.9h-66.6V108.6c0-5.8 4.8-10.5 10.6-10.5z" fill="#FFDB00" p-id="2129"></path><path d="M515.1 98.1h10c3.4 0 6.1 2.7 6.1 6.1v565.3H509V104.2c0-3.4 2.8-6.1 6.1-6.1z" fill="#FBD900" p-id="2130"></path><path d="M471.6 98.1h4.1v568.2c0 1.7-1.4 3.1-3.1 3.1h-4.8c-1.7 0-3.1-1.4-3.1-3.1V105.1c0-3.9 3.1-7 6.9-7z" fill="#FFE657" p-id="2131"></path><path d="M630.6 58H676c5.8 0 10.5 4.7 10.5 10.5v560.9H620V68.5c0-5.8 4.7-10.5 10.6-10.5-0.1 0 0 0 0 0z" fill="#FFDB00" p-id="2132"></path><path d="M670.5 58h10c3.4 0 6.1 2.7 6.1 6.1v565.3h-22.2V64.1c0-3.4 2.7-6.1 6.1-6.1z" fill="#FAD400" p-id="2133"></path><path d="M627 58h4.1v568.2c0 1.7-1.4 3.1-3.2 3.1h-4.8c-1.7 0-3.1-1.4-3.1-3.1V65c0-3.9 3.1-7 7-7z" fill="#FFEB6D" p-id="2134"></path><path d="M620 495.2l22.3-273.8c0.4-5.5-4.1-10.3-10.3-10.7l-12-0.8v285.3z" opacity=".04" p-id="2135"></path><path d="M585.7 781.2l-66.4-4.4 45.5-559.9c0.4-5.5 5.7-9.7 11.9-9.3l44.3 2.9c6.1 0.4 10.7 5.2 10.3 10.7l-45.6 560z" fill="#FFDB00" p-id="2136"></path><path d="M585.7 781.2l-22.1-1.5 45.8-564.1c0.3-3.2 3.3-5.6 6.9-5.3l9.4 0.6c3.5 0.2 6.2 3 5.9 6.2l-45.9 564.1z" fill="#FBD900" p-id="2137"></path><path d="M527 777.3l-4.5-0.3c-1.7 0-3.1-1.4-3.1-3.1v-0.1L565 213.5c0.3-3.6 3.8-6.4 7.9-6.1l3.8 0.2-46.1 566.9c-0.3 1.8-1.8 3-3.6 2.8z" fill="#FFEC7F" p-id="2138"></path><path d="M435.5 798l-66.5 2.9-30-560.7c-0.3-5.5 4.4-10.2 10.5-10.5l44.3-1.9c6.1-0.3 11.3 4 11.6 9.6L435.5 798z" opacity=".04" p-id="2139"></path><path d="M424.4 798l-66.5 2.9-30-560.7c-0.3-5.5 4.4-10.2 10.5-10.5l44.3-1.9c6.1-0.3 11.3 4 11.6 9.6L424.4 798z" fill="#FFDB00" p-id="2140"></path><path d="M424.4 798l-22.2 1L372 234.1c-0.2-3.2 2.6-5.9 6.1-6.1l9.4-0.4c3.5-0.2 6.5 2.3 6.7 5.5L424.4 798z" fill="#FBD900" p-id="2141"></path><path d="M365.7 800.6l-4.5 0.2c-1.7 0.2-3.3-1.1-3.5-2.9l-30-561.1c-0.2-3.6 2.9-6.8 7-6.9l3.8-0.2 30.4 567.8c-0.1 1.7-1.5 3.1-3.2 3.1z" fill="#FFED82" p-id="2142"></path><path d="M802.2 363l-58.3 509.2c-1.1 10.3-10.7 18.1-22 18.1H273.6c-11.4 0-20.9-7.8-22.1-18.1L193.3 363h62.2c0.8 1.3 1.6 2.6 2.5 3.9 0 0.1 0.1 0.2 0.2 0.3 4.6 6.5 10.8 12.8 18.3 18.8 41.4 32.7 124.6 55.2 220.5 55.2 81.9 0 154.5-16.4 199.7-41.6 19.4-10.8 33.8-23.2 41.7-36.5h63.8z" fill="#F15B3A" p-id="2143"></path><path d="M249.6 870.8c1.2 11 10.8 19.5 22.3 19.5h141.5C279 658.1 232 367.6 232 367.6h-36l53.6 503.2z m496.2 0c-1.2 11-10.8 19.5-22.3 19.5H582c134.3-232.2 181.5-522.6 181.5-522.6h36l-53.7 503.1z" fill="#E74E2F" p-id="2144"></path><path d="M254.9 363l-0.1 0.8v-0.8z" fill="#F6927D" p-id="2145"></path><path d="M255 363l-0.2 1.1v-0.3l0.1-0.8z" fill="#F6927D" p-id="2146"></path><path d="M255.1 363l-0.3 1.5v-0.4l0.2-1.1z" fill="#F6917C" p-id="2147"></path><path d="M255.2 363l-0.4 1.8v-0.3l0.3-1.5z" fill="#F6907B" p-id="2148"></path><path d="M255.2 363l-0.4 2.1v-0.3l0.4-1.8z" fill="#F6907A" p-id="2149"></path><path d="M255.3 363l-0.5 2.5v-0.4l0.4-2.1z" fill="#F68F79" p-id="2150"></path><path d="M255.4 363l-0.6 2.8v-0.3l0.5-2.5z" fill="#F68E78" p-id="2151"></path><path d="M255.5 363l-0.7 3.2v-0.4l0.6-2.8z" fill="#F68D77" p-id="2152"></path><path d="M255.5 363l-0.7 3.5v-0.3l0.7-3.2z" fill="#F58C76" p-id="2153"></path><path d="M255.6 363l-0.8 3.8v-0.3l0.7-3.5z" fill="#F58C75" p-id="2154"></path><path d="M255.7 363l-0.9 3.9v-0.1l0.8-3.8z" fill="#F58B74" p-id="2155"></path><path d="M255.8 363l-0.9 3.9h-0.1l0.9-3.9z" fill="#F58A73" p-id="2156"></path><path d="M255.8 363l-0.8 3.9h-0.1l0.9-3.9z" fill="#F58972" p-id="2157"></path><path d="M255.9 363l-0.9 3.9 0.8-3.9z" fill="#F58871" p-id="2158"></path><path d="M256 363l-0.9 3.9h-0.1l0.9-3.9z" fill="#F58770" p-id="2159"></path><path d="M256.1 363l-0.9 3.9h-0.1l0.9-3.9z" fill="#F5876F" p-id="2160"></path><path d="M256.1 363l-0.8 3.9h-0.1l0.9-3.9z" fill="#F5866E" p-id="2161"></path><path d="M256.2 363l-0.8 3.9h-0.1l0.8-3.9z" fill="#F5856D" p-id="2162"></path><path d="M256.3 363l-0.9 3.9 0.8-3.9z" fill="#F5846C" p-id="2163"></path><path d="M256.4 363l-0.9 3.9h-0.1l0.9-3.9z" fill="#F5836B" p-id="2164"></path><path d="M256.4 363l-0.8 3.9h-0.1l0.9-3.9z" fill="#F4836A" p-id="2165"></path><path d="M256.5 363l-0.9 3.9 0.8-3.9z" fill="#F48269" p-id="2166"></path><path d="M256.6 363l-0.9 3.9h-0.1l0.9-3.9z" fill="#F48168" p-id="2167"></path><path d="M256.7 363l-0.9 3.9h-0.1l0.9-3.9z" fill="#F48067" p-id="2168"></path><path d="M256.7 363l-0.8 3.9h-0.1l0.9-3.9z" fill="#F47F66" p-id="2169"></path><path d="M256.8 363l-0.9 3.9 0.8-3.9z" fill="#F47F65" p-id="2170"></path><path d="M256.9 363l-0.9 3.9h-0.1l0.9-3.9z" fill="#F47E63" p-id="2171"></path><path d="M257 363l-0.9 3.9h-0.1l0.9-3.9z" fill="#F47D62" p-id="2172"></path><path d="M257 363l-0.8 3.9h-0.1l0.9-3.9z" fill="#F47C61" p-id="2173"></path><path d="M257.1 363l-0.9 3.9 0.8-3.9z" fill="#F47B60" p-id="2174"></path><path d="M257.2 363l-0.9 3.9h-0.1l0.9-3.9z" fill="#F47A5F" p-id="2175"></path><path d="M257.2 363l-0.8 3.9h-0.1l0.9-3.9z" fill="#F47A5E" p-id="2176"></path><path d="M257.3 363l-0.8 3.9h-0.1l0.8-3.9z" fill="#F3795D" p-id="2177"></path><path d="M257.4 363l-0.9 3.9 0.8-3.9z" fill="#F3785C" p-id="2178"></path><path d="M257.5 363l-0.9 3.9h-0.1l0.9-3.9z" fill="#F3775B" p-id="2179"></path><path d="M257.5 363l-0.8 3.9h-0.1l0.9-3.9z" fill="#F3765A" p-id="2180"></path><path d="M257.6 363l-0.8 3.9h-0.1l0.8-3.9z" fill="#F37659" p-id="2181"></path><path d="M257.7 363l-0.9 3.9 0.8-3.9z" fill="#F37558" p-id="2182"></path><path d="M257.8 363l-0.9 3.9h-0.1l0.9-3.9z" fill="#F37457" p-id="2183"></path><path d="M257.8 363l-0.8 3.9h-0.1l0.9-3.9z" fill="#F37356" p-id="2184"></path><path d="M257.9 363l-0.8 3.9h-0.1l0.8-3.9z" fill="#F37255" p-id="2185"></path><path d="M257.9 363.3l-0.8 3.6 0.8-3.9z" fill="#F37254" p-id="2186"></path><path d="M257.9 363.6l-0.7 3.3h-0.1l0.8-3.6z" fill="#F37153" p-id="2187"></path><path d="M257.9 364l-0.6 2.9h-0.1l0.7-3.3z" fill="#F37052" p-id="2188"></path><path d="M257.9 364.3l-0.5 2.6h-0.1l0.6-2.9z" fill="#F26F51" p-id="2189"></path><path d="M257.9 364.6l-0.5 2.3 0.5-2.6z" fill="#F26E50" p-id="2190"></path><path d="M257.9 365l-0.4 1.9h-0.1l0.5-2.3z" fill="#F26D4F" p-id="2191"></path><path d="M257.9 365.3l-0.3 1.6h-0.1l0.4-1.9z" fill="#F26D4E" p-id="2192"></path><path d="M257.9 365.7l-0.3 1.2 0.3-1.6z" fill="#F26C4D" p-id="2193"></path><path d="M257.9 366l-0.2 0.9h-0.1l0.3-1.2z" fill="#F26B4C" p-id="2194"></path><path d="M257.7 366.9l0.2-0.9v0.9z" fill="#F26B4C" p-id="2195"></path><path d="M696.6 399.5c0.1 15.8-24.2 36.9-64.5 46.3-202.7 47.1-311.3-19.7-355.8-59.9 41.4 32.7 124.6 55.2 220.5 55.2 82 0 154.7-16.4 199.8-41.6z" fill="#F67C5C" p-id="2196"></path><path d="M320.4 655.9a188.6 95.9 0 1 0 377.2 0 188.6 95.9 0 1 0-377.2 0z" opacity=".04" p-id="2197"></path><path d="M320.4 650.2a177.5 90.2 0 1 0 355 0 177.5 90.2 0 1 0-355 0z" fill="#F9DD00" p-id="2198"></path><path d="M497.9 560c-4.7 0-9.3 0.2-13.9 0.4 76.2 3.6 136 36.1 136 75.8 0 42-67 76.1-149.8 76.1-78 0-142.1-30.3-149.1-69.1-0.4 2.3-0.6 4.7-0.7 7 0 49.8 79.5 90.2 177.5 90.2s177.5-40.4 177.5-90.2S596 560 497.9 560z" fill="#F9D600" p-id="2199"></path><path d="M497.9 748C393.7 748 312 705.1 312 650.3c0-54.8 81.6-97.7 185.9-97.7s185.9 42.9 185.9 97.7c0 54.7-81.6 97.7-185.9 97.7z m0-180.5c-93.3 0-169.2 37.1-169.2 82.7s75.9 82.7 169.2 82.7 169.2-37.1 169.2-82.7c0.1-45.6-75.8-82.6-169.2-82.7z" fill="#FBDF17" p-id="2200"></path><path d="M364.763 640.932a15.3 37.3 71.227 1 0 70.632-24.007 15.3 37.3 71.227 1 0-70.632 24.007z" fill="#FFEA3C" p-id="2201"></path><path d="M365.647 625.464a8.2 13.3 69.131 1 0 24.855-9.476 8.2 13.3 69.131 1 0-24.855 9.476z" fill="#FFFFFF" p-id="2202"></path></svg>